<?xml version="1.0" encoding="utf-8"?>
<!-- Generator: Adobe Illustrator 25.4.1, SVG Export Plug-In . SVG Version: 6.00 Build 0)  -->
<svg version="1.1" id="Layer_1" xmlns="http://www.w3.org/2000/svg" xmlns:xlink="http://www.w3.org/1999/xlink" x="0px" y="0px"
	 viewBox="0 0 256 256" style="enable-background:new 0 0 256 256;" xml:space="preserve">
<style type="text/css">
	.st0{fill:#E14683;}
</style>
<g id="Union_2_00000018215443167316316550000000133839156229632172_" transform="translate(52.865 86.942) rotate(180)">
	<path class="st0" d="M-121.75-157.18l99.5,99.51c0.59,0.49,1.16,1.01,1.69,1.56c7.57,7.89,7.46,20.39-0.25,28.15
		c-0.53,0.53-1.08,1.03-1.67,1.49l-101.27,97.8c-7.94,7.67-20.59,7.45-28.26-0.49s-7.45-20.59,0.49-28.26l0,0l87.99-84.99
		l-86.52-86.52c-7.81-7.81-7.81-20.46,0-28.27c7.81-7.81,20.46-7.81,28.27,0L-121.75-157.18z"/>
	<path class="st0" d="M-135.9-160.18c-4.58,0-8.88,1.78-12.12,5.02c-6.68,6.68-6.68,17.55,0,24.23l88.56,88.56l-90.09,87
		c-3.29,3.18-5.15,7.45-5.23,12.03c-0.08,4.58,1.63,8.91,4.81,12.2c3.26,3.37,7.64,5.23,12.33,5.23c4.46,0,8.69-1.71,11.9-4.81
		l101.37-97.89l0.1-0.08c0.5-0.4,0.98-0.83,1.43-1.28c3.12-3.12,4.9-7.27,5.01-11.68l0-0.02c0.15-4.67-1.56-9.09-4.8-12.45
		c-0.46-0.47-0.95-0.93-1.45-1.34l-0.11-0.09l-99.61-99.61C-127.02-158.4-131.32-160.18-135.9-160.18 M-135.9-163.03
		c5.12,0,10.23,1.95,14.13,5.86l99.51,99.51c0.59,0.48,1.15,1,1.69,1.56c3.91,4.04,5.76,9.31,5.6,14.52
		c-0.12,4.94-2.07,9.85-5.85,13.62c-0.53,0.53-1.09,1.03-1.67,1.49l-101.28,97.8c-7.94,7.67-20.59,7.45-28.26-0.49
		s-7.45-20.59,0.49-28.26l88-84.98l-86.51-86.51c-7.8-7.8-7.8-20.46,0-28.27C-146.13-161.08-141.01-163.03-135.9-163.03z"/>
</g>
</svg>
