<?xml version="1.0" encoding="utf-8"?>
<!-- Generator: Adobe Illustrator 25.4.1, SVG Export Plug-In . SVG Version: 6.00 Build 0)  -->
<svg version="1.1" id="Layer_1" xmlns="http://www.w3.org/2000/svg" xmlns:xlink="http://www.w3.org/1999/xlink" x="0px" y="0px"
	 viewBox="0 0 1080 1080" style="enable-background:new 0 0 1080 1080;" xml:space="preserve">
<style type="text/css">
	.st0{fill:none;}
	.st1{fill:#FFFFFF;}
</style>
<g id="Bounding_Boxes">
	<path id="Path_3343" class="st0" d="M11.56,0h1080v1080h-1080V0z"/>
</g>
<path id="Path_1991" class="st0" d="M2.56-22H659.1v656.54H2.56V-22z"/>
<g>
	<path d="M540,1078.5c-72.7,0-143.22-14.24-209.61-42.32c-64.12-27.12-121.71-65.95-171.17-115.41S70.94,813.73,43.82,749.61
		C15.74,683.22,1.5,612.7,1.5,540s14.24-143.22,42.32-209.61c27.12-64.12,65.95-121.71,115.41-171.17S266.27,70.94,330.39,43.82
		C396.78,15.74,467.3,1.5,540,1.5s143.22,14.24,209.61,42.32c64.12,27.12,121.71,65.95,171.17,115.41s88.28,107.04,115.41,171.17
		c28.08,66.39,42.32,136.91,42.32,209.61s-14.24,143.22-42.32,209.61c-27.12,64.12-65.95,121.71-115.41,171.17
		s-107.04,88.28-171.17,115.41C683.22,1064.26,612.7,1078.5,540,1078.5z"/>
	<path d="M540,2c72.63,0,143.09,14.22,209.41,42.28c31.88,13.48,62.63,30.17,91.39,49.6c28.49,19.25,55.28,41.35,79.62,65.7
		s46.45,51.14,65.7,79.62c19.43,28.76,36.12,59.51,49.6,91.39C1063.78,396.91,1078,467.37,1078,540s-14.22,143.09-42.28,209.41
		c-13.48,31.88-30.17,62.63-49.6,91.39c-19.25,28.49-41.35,55.28-65.7,79.62s-51.14,46.45-79.62,65.7
		c-28.76,19.43-59.51,36.12-91.39,49.6C683.09,1063.78,612.63,1078,540,1078s-143.09-14.22-209.41-42.28
		c-31.88-13.48-62.63-30.17-91.39-49.6c-28.49-19.25-55.28-41.35-79.62-65.7s-46.45-51.14-65.7-79.62
		c-19.43-28.76-36.12-59.51-49.6-91.39C16.22,683.09,2,612.63,2,540s14.22-143.09,42.28-209.41c13.48-31.88,30.17-62.63,49.6-91.39
		c19.25-28.49,41.35-55.28,65.7-79.62s51.14-46.45,79.62-65.7c28.76-19.43,59.51-36.12,91.39-49.6C396.91,16.22,467.37,2,540,2
		 M540,1C242.32,1,1,242.32,1,540s241.32,539,539,539s539-241.32,539-539S837.68,1,540,1L540,1z"/>
</g>
<g>
	<path d="M-628,1078.5c-72.7,0-143.22-14.24-209.61-42.32c-64.12-27.12-121.71-65.95-171.17-115.41s-88.28-107.04-115.41-171.17
		c-28.08-66.39-42.32-136.91-42.32-209.61s14.24-143.22,42.32-209.61c27.12-64.12,65.95-121.71,115.41-171.17
		s107.04-88.28,171.17-115.41C-771.22,15.74-700.7,1.5-628,1.5s143.22,14.24,209.61,42.32c64.12,27.12,121.71,65.95,171.17,115.41
		s88.28,107.04,115.41,171.17C-103.74,396.78-89.5,467.3-89.5,540s-14.24,143.22-42.32,209.61
		c-27.12,64.12-65.95,121.71-115.41,171.17s-107.04,88.28-171.17,115.41C-484.78,1064.26-555.3,1078.5-628,1078.5z"/>
	<path d="M-628,2c72.63,0,143.09,14.22,209.41,42.28c31.88,13.48,62.63,30.17,91.39,49.6c28.49,19.25,55.28,41.35,79.62,65.7
		s46.45,51.14,65.7,79.62c19.43,28.76,36.12,59.51,49.6,91.39C-104.22,396.91-90,467.37-90,540s-14.22,143.09-42.28,209.41
		c-13.48,31.88-30.17,62.63-49.6,91.39c-19.25,28.49-41.35,55.28-65.7,79.62s-51.14,46.45-79.62,65.7
		c-28.76,19.43-59.51,36.12-91.39,49.6C-484.91,1063.78-555.37,1078-628,1078s-143.09-14.22-209.41-42.28
		c-31.88-13.48-62.63-30.17-91.39-49.6c-28.49-19.25-55.28-41.35-79.62-65.7s-46.45-51.14-65.7-79.62
		c-19.43-28.76-36.12-59.51-49.6-91.39C-1151.78,683.09-1166,612.63-1166,540s14.22-143.09,42.28-209.41
		c13.48-31.88,30.17-62.63,49.6-91.39c19.25-28.49,41.35-55.28,65.7-79.62s51.14-46.45,79.62-65.7
		c28.76-19.43,59.51-36.12,91.39-49.6C-771.09,16.22-700.63,2-628,2 M-628,1c-297.68,0-539,241.32-539,539s241.32,539,539,539
		S-89,837.68-89,540S-330.32,1-628,1L-628,1z"/>
</g>
<g>
	<polygon class="st1" points="540.13,567.43 346.27,761.29 273.21,688.23 467.07,494.37 273.21,300.5 346.27,227.44 540.13,421.3 
		734,227.44 807.06,300.5 613.2,494.37 807.06,688.23 734,761.29 	"/>
	<path d="M734,228.15l72.35,72.35L613.2,493.66l-0.71,0.71l0.71,0.71l193.16,193.16L734,760.59L540.84,567.43l-0.71-0.71l-0.71,0.71
		L346.27,760.59l-72.35-72.35l193.16-193.16l0.71-0.71l-0.71-0.71L273.91,300.5l72.35-72.35L539.43,421.3l0.71,0.71l0.71-0.71
		L734,228.15 M734,226.73L540.13,420.6L346.27,226.73L272.5,300.5l193.87,193.87L272.5,688.23L346.27,762l193.87-193.87L734,762
		l73.77-73.77L613.9,494.37L807.77,300.5L734,226.73L734,226.73z"/>
</g>
<g>
	
		<rect x="-676.58" y="165.61" transform="matrix(0.7071 -0.7071 0.7071 0.7071 -539.316 -292.6467)" class="st1" width="107.33" height="678.14"/>
	<path class="st1" d="M-824.73,227.69l478.81,478.81l-75.18,75.18l-478.81-478.81L-824.73,227.69 M-824.73,226.27l-76.6,76.6
		L-421.1,783.1l76.6-76.6L-824.73,226.27L-824.73,226.27z"/>
</g>
<g>
	
		<rect x="-972.98" y="440.02" transform="matrix(0.7071 -0.7071 0.7071 0.7071 -534.7575 -303.6465)" class="st1" width="678.14" height="107.33"/>
	<path class="st1" d="M-432.1,216.69l75.18,75.18l-478.81,478.81l-75.18-75.18L-432.1,216.69 M-432.1,215.27L-912.32,695.5
		l76.6,76.6l480.23-480.23L-432.1,215.27L-432.1,215.27z"/>
</g>
</svg>
