<?xml version="1.0" encoding="utf-8"?>
<!-- Generator: Adobe Illustrator 25.4.1, SVG Export Plug-In . SVG Version: 6.00 Build 0)  -->
<svg version="1.1" id="Layer_1" xmlns="http://www.w3.org/2000/svg" xmlns:xlink="http://www.w3.org/1999/xlink" x="0px" y="0px"
	 viewBox="0 0 1080 1080" style="enable-background:new 0 0 1080 1080;" xml:space="preserve">
<style type="text/css">
	.st0{fill:none;}
	.st1{fill:#E14683;}
</style>
<g id="Bounding_Boxes">
	<path id="Path_3343" class="st0" d="M11.56,0h1080v1080h-1080V0z"/>
</g>
<g id="Bounding_Box">
	<rect id="Rectangle_337" x="1013.1" y="33.54" class="st0" width="24" height="24"/>
</g>
<path id="Path_1931" class="st0" d="M0,0h1080v1080H0V0z"/>
<path id="Path_2016" class="st0" d="M0,0h1080v1080H0V0z"/>
<g>
	<circle cx="757" cy="1388" r="90"/>
	<circle cx="757" cy="1676" r="90"/>
	<circle cx="757" cy="1928" r="90"/>
</g>
<path id="Path_2016_00000127020821150883273250000001333930873984682908_" class="st0" d="M1157.13,1495.81H2239v1081.87H1157.13
	V1495.81z"/>
<path id="Path_2017" d="M1719.07,1809.43c49.79,0,90.16-40.36,90.16-90.16s-40.36-90.16-90.16-90.16s-90.16,40.36-90.16,90.16
	C1629.06,1769.01,1669.34,1809.29,1719.07,1809.43z M1719.07,1899.59c-49.79,0-90.16,40.36-90.16,90.16s40.36,90.16,90.16,90.16
	s90.16-40.36,90.16-90.16C1809.07,1940.02,1768.8,1899.74,1719.07,1899.59z M1719.07,2170.06c-49.79,0-90.16,40.36-90.16,90.16
	s40.36,90.16,90.16,90.16s90.16-40.36,90.16-90.16C1809.07,2210.48,1768.8,2170.2,1719.07,2170.06z"/>
<ellipse cx="2193" cy="1719.5" rx="90" ry="89.5"/>
<ellipse cx="2193" cy="1999.5" rx="90" ry="89.5"/>
<ellipse cx="2193" cy="2279.5" rx="90" ry="89.5"/>
<g>
	<path class="st1" d="M162,266H57c-6.6,0-12-5.4-12-12V149c0-6.6,5.4-12,12-12h105c6.6,0,12,5.4,12,12v105
		C174,260.6,168.6,266,162,266z"/>
	<path class="st1" d="M991,251H258c-25.3,0-46-20.7-46-46v0c0-25.3,20.7-46,46-46h733c25.3,0,46,20.7,46,46v0
		C1037,230.3,1016.3,251,991,251z"/>
	<path class="st1" d="M161,479H56c-6.6,0-12-5.4-12-12V362c0-6.6,5.4-12,12-12h105c6.6,0,12,5.4,12,12v105
		C173,473.6,167.6,479,161,479z"/>
	<path class="st1" d="M990,464H257c-25.3,0-46-20.7-46-46v0c0-25.3,20.7-46,46-46h733c25.3,0,46,20.7,46,46v0
		C1036,443.3,1015.3,464,990,464z"/>
	<path class="st1" d="M161,692H56c-6.6,0-12-5.4-12-12V575c0-6.6,5.4-12,12-12h105c6.6,0,12,5.4,12,12v105
		C173,686.6,167.6,692,161,692z"/>
	<path class="st1" d="M990,677H257c-25.3,0-46-20.7-46-46v0c0-25.3,20.7-46,46-46h733c25.3,0,46,20.7,46,46v0
		C1036,656.3,1015.3,677,990,677z"/>
	<path class="st1" d="M160,905H55c-6.6,0-12-5.4-12-12V788c0-6.6,5.4-12,12-12h105c6.6,0,12,5.4,12,12v105
		C172,899.6,166.6,905,160,905z"/>
	<path class="st1" d="M989,890H256c-25.3,0-46-20.7-46-46v0c0-25.3,20.7-46,46-46h733c25.3,0,46,20.7,46,46v0
		C1035,869.3,1014.3,890,989,890z"/>
</g>
</svg>
