<?xml version="1.0" encoding="utf-8"?>
<!-- Generator: Adobe Illustrator 25.4.1, SVG Export Plug-In . SVG Version: 6.00 Build 0)  -->
<svg version="1.1" id="Layer_1" xmlns="http://www.w3.org/2000/svg" xmlns:xlink="http://www.w3.org/1999/xlink" x="0px" y="0px"
	 viewBox="0 0 1080 1080" style="enable-background:new 0 0 1080 1080;" xml:space="preserve">
<style type="text/css">
	.st0{fill:none;}
	.st1{stroke:#000000;stroke-miterlimit:10;}
	.st2{fill:#FFFFFF;}
	.st3{fill:#E14683;}
</style>
<g id="Bounding_Boxes">
	<path id="Path_3343" class="st0" d="M2118.56-84h1080V996h-1080V-84z"/>
</g>
<g id="Bounding_Box">
	<rect id="Rectangle_337" x="1008.1" y="33.54" class="st0" width="24" height="24"/>
</g>
<g id="Master_00000165212128061884480400000003129350847218480289_">
	<path id="Path_6374" d="M-655.9,286.83V0.94h-161.82v140.25L-1033.49-53l-539.41,485.47h161.82V864h269.71V540.35h215.76V864
		h269.71V432.47h161.82L-655.9,286.83z M-1141.37,324.59c0-59.58,48.3-107.88,107.88-107.88c59.58,0,107.88,48.3,107.88,107.88
		H-1141.37z"/>
</g>
<path class="st1" d="M3031.5,338.22V50.5h-162v141.92L2653.51-1.97L2114.1,483.5h161.4v432h270v-324h216v324h270v-406v-26h161.42
	L3031.5,338.22z M2760.32,372.5h-213.65c-0.77-4.24-1.18-8.58-1.18-13c0-48.6,48.35-88,108-88s108,39.4,108,88
	C2761.5,363.92,2761.1,368.26,2760.32,372.5z"/>
<polygon points="1032.51,-1685.47 493.1,-1200 1571.92,-1200 "/>
<path class="st2" d="M1033-1443c-64.62,0-117,52.38-117,117h234C1150-1390.62,1097.62-1443,1033-1443z"/>
<rect x="645" y="-1287" class="st2" width="270" height="432"/>
<rect x="1152" y="-1287" class="st2" width="270" height="432"/>
<rect x="1273" y="-1720" class="st2" width="162" height="424"/>
<rect x="915" y="-1287" class="st2" width="255" height="134"/>
<path id="Path_2204" class="st0" d="M0,2h1075.2v1075.2H0V2z"/>
<circle class="st3" cx="540.5" cy="361.5" r="179.5"/>
<path class="st2" d="M740.6,1218.2c0,0-242.23,6.93-333.91,116.36c0.31,0.44-24.29,22.24-24.49,62.84c-0.2,40.6,0,89.6,0,89.6H743
	L740.6,1218.2z"/>
<path class="st2" d="M729.4,1218.2c0,0,242.23,6.93,333.91,116.36c-0.31,0.44,24.29,22.24,24.49,62.84c0.2,40.6,0,89.6,0,89.6H727
	L729.4,1218.2z"/>
<path class="st3" d="M892.8,809.4c-0.2-40.6-24.8-62.4-24.49-62.84c-79.89-95.35-274.06-112.88-322.71-115.81l0-0.55
	c0,0-1.97,0.06-5.6,0.24c-3.63-0.18-5.6-0.24-5.6-0.24l0,0.55c-48.65,2.93-242.82,20.46-322.71,115.81
	C212,747,187.4,768.8,187.2,809.4s0,89.6,0,89.6H532h16h344.8C892.8,899,893,850,892.8,809.4z"/>
</svg>
