<?xml version="1.0" encoding="utf-8"?>
<!-- Generator: Adobe Illustrator 25.4.1, SVG Export Plug-In . SVG Version: 6.00 Build 0)  -->
<svg version="1.1" id="Layer_1" xmlns="http://www.w3.org/2000/svg" xmlns:xlink="http://www.w3.org/1999/xlink" x="0px" y="0px"
	 viewBox="0 0 1080 1080" style="enable-background:new 0 0 1080 1080;" xml:space="preserve">
<style type="text/css">
	.st0{fill:none;}
	.st1{fill:#E14683;}
	.st2{stroke:#000000;stroke-miterlimit:10;}
	.st3{fill:#FFFFFF;stroke:#FFFFFF;stroke-miterlimit:10;}
</style>
<g id="Bounding_Boxes">
	<path id="Path_3343" class="st0" d="M11.56,0h1080v1080h-1080V0z"/>
</g>
<g id="Bounding_Box">
	<rect id="Rectangle_337" x="1013.1" y="33.54" class="st0" width="24" height="24"/>
</g>
<g id="Bounding_Box_00000098183347200549702120000009493465335334068362_">
	<rect id="Rectangle_273" x="-360.24" y="221.66" class="st0" width="336.01" height="336.01"/>
</g>
<path id="Path_1930" class="st1" d="M552,90c-173.97,0-315,141.03-315,315c0,236.25,315,585,315,585s315-348.75,315-585
	C867,231.03,725.97,90,552,90z M552,517.5c-62.13,0-112.5-50.37-112.5-112.5S489.87,292.5,552,292.5S664.5,342.87,664.5,405
	S614.13,517.5,552,517.5z"/>
<path id="Path_1931" class="st0" d="M0,0h1080v1080H0V0z"/>
<g>
	<path class="st2" d="M1505,90c0.5,28.39,0,893.2,0,899.96C1505,983.2,1504.5,118.39,1505,90c-36.5-2.5-314.5,40.5-315,315
		c16.5,271.5,315,585,315,585s298.5-313.5,315-585C1819.5,130.5,1541.5,87.5,1505,90z"/>
</g>
<circle class="st3" cx="1493" cy="405" r="112.5"/>
<g>
	<g>
		<path class="st2" d="M540-1137c0.5,28.39,0,893.2,0,899.96C540-243.8,539.5-1108.61,540-1137c-36.5-2.5-314.5,40.5-315,315
			c16.5,271.5,315,585,315,585s298.5-313.5,315-585C854.5-1096.5,576.5-1139.5,540-1137z"/>
	</g>
	<circle class="st3" cx="528" cy="-822" r="112.5"/>
</g>
<ellipse class="st2" cx="-547.5" cy="-236.5" rx="64" ry="60"/>
<path class="st3" d="M-396.5-442.5h-85c-1.1,0-2-0.9-2-2l0,0c0-1.1,0.9-2,2-2h85c1.1,0,2,0.9,2,2l0,0
	C-394.5-443.4-395.4-442.5-396.5-442.5z"/>
<path class="st3" d="M-392.5-371.5h-94c-1.1,0-2-0.9-2-2l0,0c0-1.1,0.9-2,2-2h94c1.1,0,2,0.9,2,2l0,0
	C-390.5-372.4-391.4-371.5-392.5-371.5z"/>
<path class="st3" d="M-381.5-406.5h-115c-1.1,0-2-0.9-2-2l0,0c0-1.1,0.9-2,2-2h115c1.1,0,2,0.9,2,2l0,0
	C-379.5-407.4-380.4-406.5-381.5-406.5z"/>
<path class="st3" d="M-504.5-273.5h-85c-1.1,0-2-0.9-2-2l0,0c0-1.1,0.9-2,2-2h85c1.1,0,2,0.9,2,2l0,0
	C-502.5-274.4-503.4-273.5-504.5-273.5z"/>
<path class="st3" d="M-500.5-202.5h-94c-1.1,0-2-0.9-2-2l0,0c0-1.1,0.9-2,2-2h94c1.1,0,2,0.9,2,2l0,0
	C-498.5-203.4-499.4-202.5-500.5-202.5z"/>
<path class="st3" d="M-489.5-237.5h-115c-1.1,0-2-0.9-2-2l0,0c0-1.1,0.9-2,2-2h115c1.1,0,2,0.9,2,2l0,0
	C-487.5-238.4-488.4-237.5-489.5-237.5z"/>
<path class="st3" d="M-259.5-357.5h-85c-1.1,0-2-0.9-2-2l0,0c0-1.1,0.9-2,2-2h85c1.1,0,2,0.9,2,2l0,0
	C-257.5-358.4-258.4-357.5-259.5-357.5z"/>
<path class="st3" d="M-255.5-286.5h-94c-1.1,0-2-0.9-2-2l0,0c0-1.1,0.9-2,2-2h94c1.1,0,2,0.9,2,2l0,0
	C-253.5-287.4-254.4-286.5-255.5-286.5z"/>
<path class="st3" d="M-244.5-321.5h-115c-1.1,0-2-0.9-2-2l0,0c0-1.1,0.9-2,2-2h115c1.1,0,2,0.9,2,2l0,0
	C-242.5-322.4-243.4-321.5-244.5-321.5z"/>
<path class="st2" d="M-542.5-139.5c-35.35,0-64,26.86-64,60s28.65,60,64,60c35.35,0,64-26.86,64-60S-507.15-139.5-542.5-139.5z
	 M-584.5-120.5h85c1.1,0,2,0.9,2,2s-0.9,2-2,2h-85c-1.1,0-2-0.9-2-2S-585.6-120.5-584.5-120.5z M-495.5-45.5h-94c-1.1,0-2-0.9-2-2
	s0.9-2,2-2h94c1.1,0,2,0.9,2,2S-494.4-45.5-495.5-45.5z M-484.5-80.5h-115c-1.1,0-2-0.9-2-2s0.9-2,2-2h115c1.1,0,2,0.9,2,2
	S-483.4-80.5-484.5-80.5z"/>
<ellipse class="st3" cx="-542" cy="-80" rx="19.5" ry="59.5"/>
<path class="st2" d="M-302.5-273.5c-35.35,0-64,26.86-64,60s28.65,60,64,60c0.13,0,0.25-0.01,0.38-0.01
	c-10.72-0.19-19.38-26.75-19.38-59.49c0-32.86,8.73-59.5,19.5-59.5c10.77,0,19.5,26.64,19.5,59.5c0,32.63-8.61,59.12-19.28,59.48
	c35.01-0.36,63.28-27.07,63.28-59.98C-238.5-246.64-267.15-273.5-302.5-273.5z"/>
</svg>
