<?xml version="1.0" encoding="utf-8"?>
<!-- Generator: Adobe Illustrator 25.4.1, SVG Export Plug-In . SVG Version: 6.00 Build 0)  -->
<svg version="1.1" id="Layer_1" xmlns="http://www.w3.org/2000/svg" xmlns:xlink="http://www.w3.org/1999/xlink" x="0px" y="0px"
	 viewBox="0 0 1080 1080" style="enable-background:new 0 0 1080 1080;" xml:space="preserve">
<style type="text/css">
	.st0{fill:none;}
	.st1{fill:#F0A3C1;}
	.st2{fill:#FFFFFF;}
	.st3{fill:#E14683;}
</style>
<g id="Bounding_Boxes">
	<path id="Path_3343" class="st0" d="M1341.56,23h1080v1080h-1080V23z"/>
</g>
<path id="Path_1991" class="st0" d="M1332.56,1h656.54v656.54h-656.54V1z"/>
<g>
	<path d="M1870,1101.5c-72.7,0-143.22-14.24-209.61-42.32c-64.12-27.12-121.71-65.95-171.17-115.41s-88.28-107.04-115.41-171.17
		c-28.08-66.39-42.32-136.91-42.32-209.61s14.24-143.22,42.32-209.61c27.12-64.12,65.95-121.71,115.41-171.17
		s107.04-88.28,171.17-115.41C1726.78,38.74,1797.3,24.5,1870,24.5s143.22,14.24,209.61,42.32
		c64.12,27.12,121.71,65.95,171.17,115.41s88.28,107.04,115.41,171.17c28.08,66.39,42.32,136.91,42.32,209.61
		s-14.24,143.22-42.32,209.61c-27.12,64.12-65.95,121.71-115.41,171.17s-107.04,88.28-171.17,115.41
		C2013.22,1087.26,1942.7,1101.5,1870,1101.5z"/>
	<path d="M1870,25c72.63,0,143.09,14.22,209.41,42.28c31.88,13.48,62.63,30.17,91.39,49.6c28.49,19.25,55.28,41.35,79.62,65.7
		c24.35,24.35,46.45,51.14,65.7,79.62c19.43,28.76,36.12,59.51,49.6,91.39C2393.78,419.91,2408,490.37,2408,563
		s-14.22,143.09-42.28,209.41c-13.48,31.88-30.17,62.63-49.6,91.39c-19.25,28.49-41.35,55.28-65.7,79.62
		c-24.35,24.35-51.14,46.45-79.62,65.7c-28.76,19.43-59.51,36.12-91.39,49.6c-66.33,28.05-136.78,42.28-209.41,42.28
		s-143.09-14.22-209.41-42.28c-31.88-13.48-62.63-30.17-91.39-49.6c-28.49-19.25-55.28-41.35-79.62-65.7s-46.45-51.14-65.7-79.62
		c-19.43-28.76-36.12-59.51-49.6-91.39C1346.22,706.09,1332,635.63,1332,563s14.22-143.09,42.28-209.41
		c13.48-31.88,30.17-62.63,49.6-91.39c19.25-28.49,41.35-55.28,65.7-79.62s51.14-46.45,79.62-65.7
		c28.76-19.43,59.51-36.12,91.39-49.6C1726.91,39.22,1797.37,25,1870,25 M1870,24c-297.68,0-539,241.32-539,539s241.32,539,539,539
		s539-241.32,539-539S2167.68,24,1870,24L1870,24z"/>
</g>
<g>
	<path class="st1" d="M-628,1078.5c-72.7,0-143.22-14.24-209.61-42.32c-64.12-27.12-121.71-65.95-171.17-115.41
		s-88.28-107.04-115.41-171.17c-28.08-66.39-42.32-136.91-42.32-209.61s14.24-143.22,42.32-209.61
		c27.12-64.12,65.95-121.71,115.41-171.17s107.04-88.28,171.17-115.41C-771.22,15.74-700.7,1.5-628,1.5s143.22,14.24,209.61,42.32
		c64.12,27.12,121.71,65.95,171.17,115.41s88.28,107.04,115.41,171.17C-103.74,396.78-89.5,467.3-89.5,540
		s-14.24,143.22-42.32,209.61c-27.12,64.12-65.95,121.71-115.41,171.17s-107.04,88.28-171.17,115.41
		C-484.78,1064.26-555.3,1078.5-628,1078.5z"/>
	<path class="st1" d="M-628,2c72.63,0,143.09,14.22,209.41,42.28c31.88,13.48,62.63,30.17,91.39,49.6
		c28.49,19.25,55.28,41.35,79.62,65.7s46.45,51.14,65.7,79.62c19.43,28.76,36.12,59.51,49.6,91.39C-104.22,396.91-90,467.37-90,540
		s-14.22,143.09-42.28,209.41c-13.48,31.88-30.17,62.63-49.6,91.39c-19.25,28.49-41.35,55.28-65.7,79.62s-51.14,46.45-79.62,65.7
		c-28.76,19.43-59.51,36.12-91.39,49.6C-484.91,1063.78-555.37,1078-628,1078s-143.09-14.22-209.41-42.28
		c-31.88-13.48-62.63-30.17-91.39-49.6c-28.49-19.25-55.28-41.35-79.62-65.7c-24.35-24.35-46.45-51.14-65.7-79.62
		c-19.43-28.76-36.12-59.51-49.6-91.39C-1151.78,683.09-1166,612.63-1166,540s14.22-143.09,42.28-209.41
		c13.48-31.88,30.17-62.63,49.6-91.39c19.25-28.49,41.35-55.28,65.7-79.62c24.35-24.35,51.14-46.45,79.62-65.7
		c28.76-19.43,59.51-36.12,91.39-49.6C-771.09,16.22-700.63,2-628,2 M-628,1c-297.68,0-539,241.32-539,539s241.32,539,539,539
		S-89,837.68-89,540S-330.32,1-628,1L-628,1z"/>
</g>
<g>
	<polygon class="st2" points="1870.13,590.43 1676.27,784.29 1603.21,711.23 1797.07,517.37 1603.21,323.5 1676.27,250.44 
		1870.13,444.3 2064,250.44 2137.06,323.5 1943.2,517.37 2137.06,711.23 2064,784.29 	"/>
	<path d="M2064,251.15l72.35,72.35L1943.2,516.66l-0.71,0.71l0.71,0.71l193.16,193.16L2064,783.59l-193.16-193.16l-0.71-0.71
		l-0.71,0.71l-193.16,193.16l-72.35-72.35l193.16-193.16l0.71-0.71l-0.71-0.71L1603.91,323.5l72.35-72.35l193.16,193.16l0.71,0.71
		l0.71-0.71L2064,251.15 M2064,249.73L1870.13,443.6l-193.87-193.87l-73.77,73.77l193.87,193.87L1602.5,711.23l73.77,73.77
		l193.87-193.87L2064,785l73.77-73.77L1943.9,517.37l193.87-193.87L2064,249.73L2064,249.73z"/>
</g>
<g>
	
		<rect x="-676.58" y="165.61" transform="matrix(0.7071 -0.7071 0.7071 0.7071 -539.316 -292.6467)" class="st2" width="107.33" height="678.14"/>
	<path class="st2" d="M-824.73,227.69l478.81,478.81l-75.18,75.18l-478.81-478.81L-824.73,227.69 M-824.73,226.27l-76.6,76.6
		L-421.1,783.1l76.6-76.6L-824.73,226.27L-824.73,226.27z"/>
</g>
<g>
	
		<rect x="-972.98" y="440.02" transform="matrix(0.7071 -0.7071 0.7071 0.7071 -534.7575 -303.6465)" class="st2" width="678.14" height="107.33"/>
	<path class="st2" d="M-432.1,216.69l75.18,75.18l-478.81,478.81l-75.18-75.18L-432.1,216.69 M-432.1,215.27L-912.32,695.5
		l76.6,76.6l480.23-480.23L-432.1,215.27L-432.1,215.27z"/>
</g>
<g>
	<path class="st3" d="M540,1078.5c-72.7,0-143.22-14.24-209.61-42.32c-64.12-27.12-121.71-65.95-171.17-115.41
		S70.94,813.73,43.82,749.61C15.74,683.22,1.5,612.7,1.5,540s14.24-143.22,42.32-209.61c27.12-64.12,65.95-121.71,115.41-171.17
		S266.27,70.94,330.39,43.82C396.78,15.74,467.3,1.5,540,1.5s143.22,14.24,209.61,42.32c64.12,27.12,121.71,65.95,171.17,115.41
		s88.28,107.04,115.41,171.17c28.08,66.39,42.32,136.91,42.32,209.61s-14.24,143.22-42.32,209.61
		c-27.12,64.12-65.95,121.71-115.41,171.17s-107.04,88.28-171.17,115.41C683.22,1064.26,612.7,1078.5,540,1078.5z M746.9,783.8
		l77.3-77.3L611.39,493.69l201.81-201.81l-77.3-77.31L534.09,416.38L343.27,225.57l-77.3,77.31l190.81,190.81L254.97,695.5
		l77.3,77.3l201.81-201.81L746.9,783.8z"/>
	<path class="st3" d="M540,2c72.63,0,143.09,14.22,209.41,42.28c31.88,13.48,62.63,30.17,91.39,49.6
		c28.49,19.25,55.28,41.35,79.62,65.7s46.45,51.14,65.7,79.62c19.43,28.76,36.12,59.51,49.6,91.39
		C1063.78,396.91,1078,467.37,1078,540s-14.22,143.09-42.28,209.41c-13.48,31.88-30.17,62.63-49.6,91.39
		c-19.25,28.49-41.35,55.28-65.7,79.62c-24.35,24.35-51.14,46.45-79.62,65.7c-28.76,19.43-59.51,36.12-91.39,49.6
		C683.09,1063.78,612.63,1078,540,1078s-143.09-14.22-209.41-42.28c-31.88-13.48-62.63-30.17-91.39-49.6
		c-28.49-19.25-55.28-41.35-79.62-65.7c-24.35-24.35-46.45-51.13-65.7-79.62c-19.43-28.76-36.12-59.51-49.6-91.39
		C16.22,683.09,2,612.63,2,540s14.22-143.09,42.28-209.41c13.48-31.88,30.17-62.63,49.6-91.39c19.25-28.49,41.35-55.28,65.7-79.62
		s51.14-46.45,79.62-65.7c28.76-19.43,59.51-36.12,91.39-49.6C396.91,16.22,467.37,2,540,2 M534.09,415.67L343.98,225.57l-0.71-0.71
		l-0.71,0.71l-76.6,76.6l-0.71,0.71l0.71,0.71l190.11,190.11L254.97,694.79l-0.71,0.71l0.71,0.71l76.6,76.6l0.71,0.71l0.71-0.71
		L534.09,571.7L746.19,783.8l0.71,0.71l0.71-0.71l76.6-76.6l0.71-0.71l-0.71-0.71L612.1,493.69l201.11-201.11l0.71-0.71l-0.71-0.71
		l-76.6-76.6l-0.71-0.71l-0.71,0.71L534.09,415.67 M540,1C242.32,1,1,242.32,1,540s241.32,539,539,539s539-241.32,539-539
		S837.68,1,540,1L540,1z M534.09,417.09L735.9,215.27l76.6,76.6L610.69,493.69L823.5,706.5l-76.6,76.6L534.09,570.28L332.27,772.1
		l-76.6-76.6l201.81-201.81L266.68,302.87l76.6-76.6L534.09,417.09L534.09,417.09z"/>
</g>
</svg>
