<?xml version="1.0" encoding="utf-8"?>
<!-- Generator: Adobe Illustrator 25.4.1, SVG Export Plug-In . SVG Version: 6.00 Build 0)  -->
<svg version="1.1" id="Layer_1" xmlns="http://www.w3.org/2000/svg" xmlns:xlink="http://www.w3.org/1999/xlink" x="0px" y="0px"
	 viewBox="0 0 1080 1080" style="enable-background:new 0 0 1080 1080;" xml:space="preserve">
<style type="text/css">
	.st0{fill:none;}
	.st1{fill:#E14683;stroke:#E14683;stroke-miterlimit:10;}
	.st2{fill:#FFFFFF;}
</style>
<g id="Bounding_Boxes">
	<path id="Path_3343" class="st0" d="M6.56,0h1080v1080H6.56V0z"/>
</g>
<g id="Bounding_Box">
	<rect id="Rectangle_337" x="1008.1" y="33.54" class="st0" width="24" height="24"/>
</g>
<g id="Master_00000165212128061884480400000003129350847218480289_">
	<path id="Path_6374" d="M-655.9,286.83V0.94h-161.82v140.25L-1033.49-53l-539.41,485.47h161.82V864h269.71V540.35h215.76V864
		h269.71V432.47h161.82L-655.9,286.83z M-1141.37,324.59c0-59.58,48.3-107.88,107.88-107.88c59.58,0,107.88,48.3,107.88,107.88
		H-1141.37z"/>
</g>
<path class="st1" d="M919.5,422.22V134.5h-162v141.92L541.51,82.03L2.1,567.5h161.4v432h270v-324h216v324h270v-406v-26h161.42
	L919.5,422.22z M648.32,456.5H434.68c-0.77-4.24-1.18-8.58-1.18-13c0-48.6,48.35-88,108-88s108,39.4,108,88
	C649.5,447.92,649.1,452.26,648.32,456.5z"/>
<polygon points="1032.51,-1685.47 493.1,-1200 1571.92,-1200 "/>
<path class="st2" d="M1033-1443c-64.62,0-117,52.38-117,117h234C1150-1390.62,1097.62-1443,1033-1443z"/>
<rect x="645" y="-1287" class="st2" width="270" height="432"/>
<rect x="1152" y="-1287" class="st2" width="270" height="432"/>
<rect x="1273" y="-1720" class="st2" width="162" height="424"/>
<rect x="915" y="-1287" class="st2" width="255" height="134"/>
</svg>
